<?xml version="1.0" encoding="iso-8859-1"?>
<!-- Generator: Adobe Illustrator 19.0.0, SVG Export Plug-In . SVG Version: 6.00 Build 0)  -->
<svg version="1.1" id="Capa_1" xmlns="http://www.w3.org/2000/svg" xmlns:xlink="http://www.w3.org/1999/xlink" x="0px" y="0px"
	 viewBox="0 0 509.287 509.287" style="enable-background:new 0 0 509.287 509.287;" xml:space="preserve">
<circle style="fill:#4485C5;" cx="254.644" cy="254.644" r="254.644"/>
<polygon style="fill:#FFFFFC;" points="232.943,159.703 32.212,269.224 32.212,278.04 233.96,173.944 "/>
<polygon style="fill:#F1F3F7;" points="233.96,173.944 32.212,278.04 32.212,297.706 203.105,274.649 243.454,297.706 "/>
<polygon style="fill:#DDDEE6;" points="229.891,219.041 52.556,278.04 229.891,229.213 "/>
<polygon style="fill:#FFFFFC;" points="276.344,159.703 477.076,269.224 477.076,278.04 275.327,173.944 "/>
<polygon style="fill:#F1F3F7;" points="275.327,173.944 477.076,278.04 477.076,297.706 306.183,274.649 265.833,297.706 "/>
<polygon style="fill:#DDDEE6;" points="279.396,219.041 456.731,278.04 279.396,229.213 "/>
<path style="fill:#FFFFFC;" d="M254.644,36.281c-17.632,0-26.448,33.229-26.448,46.792c0,67.476,0,249.219,0,265.155
	c0,15.936,7.121,73.24,13.224,97.653c6.103,24.752,13.224,27.465,13.224,27.465s7.121-2.713,13.224-27.465
	s13.224-82.056,13.224-97.653c0-15.936,0-197.679,0-265.155C281.091,69.51,272.275,36.281,254.644,36.281z"/>
<g>
	<path style="fill:#DDDEE6;" d="M241.42,445.881c-2.374-9.494-4.747-24.074-7.121-38.993l-46.114,37.298v22.04l55.608-11.528
		C243.115,451.984,242.098,448.932,241.42,445.881z"/>
	<path style="fill:#DDDEE6;" d="M274.988,406.887c-2.034,14.919-4.747,29.499-7.121,38.993c-0.678,3.391-1.695,6.103-2.374,8.816
		l55.608,11.528v-22.04L274.988,406.887z"/>
</g>
<path style="fill:#4485C5;" d="M254.644,56.964c-20.344,0-18.988,19.327-18.988,19.327c4.747-12.207,18.988-11.528,18.988-11.528
	s13.902-0.678,18.988,11.528C273.632,76.291,274.988,56.964,254.644,56.964z"/>
<g>
</g>
<g>
</g>
<g>
</g>
<g>
</g>
<g>
</g>
<g>
</g>
<g>
</g>
<g>
</g>
<g>
</g>
<g>
</g>
<g>
</g>
<g>
</g>
<g>
</g>
<g>
</g>
<g>
</g>
</svg>
